<?xml version="1.0" encoding="utf-8"?>
<!-- Generator: Adobe Illustrator 25.2.1, SVG Export Plug-In . SVG Version: 6.00 Build 0)  -->
<svg version="1.1" id="Layer_1" xmlns="http://www.w3.org/2000/svg" xmlns:xlink="http://www.w3.org/1999/xlink" x="0px" y="0px"
	 viewBox="0 0 576.77 193.02" style="enable-background:new 0 0 576.77 193.02;" xml:space="preserve">
<style type="text/css">
	.st0{fill-rule:evenodd;clip-rule:evenodd;fill:#273152;}
	.st1{fill-rule:evenodd;clip-rule:evenodd;fill:url(#SVGID_1_);}
</style>
<g>
	<path class="st0" d="M103.4,69.71v25.11h8.23c4.83,0,8.05-1.38,9.45-3.61c3.16-5.04,3.66-18.13-3.41-20.7
		c-1.44-0.52-3.45-0.8-6.03-0.8H103.4z M85.79,56.75h23.05c7.02,0,12.44,0.6,16.29,1.77c14.82,4.47,16.84,27.3,10.48,38.86
		c-2.11,3.82-5.29,6.86-9.04,8.56c-3.73,1.7-9.21,2.68-16.96,2.68h-6.21v28.25H85.79V56.75z"/>
	<polygon class="st0" points="147.17,56.75 166.7,56.75 187.31,103.72 187.31,56.75 200.92,56.75 200.92,136.86 185.19,136.86 
		160.77,81.65 160.77,136.86 147.17,136.86 	"/>
	<path class="st0" d="M53.13,107.92L45.5,76.66l-7.48,31.26H53.13z M30.42,136.86H14.23l24.06-80.11h17.73l22.88,80.11H60.88
		l-4.24-15.2H34.57L30.42,136.86z"/>
	<linearGradient id="SVGID_1_" gradientUnits="userSpaceOnUse" x1="286.549" y1="95.7586" x2="551.3189" y2="95.7586">
		<stop  offset="0" style="stop-color:#4A92FF"/>
		<stop  offset="1" style="stop-color:#87DE5C"/>
	</linearGradient>
	<path class="st1" d="M481.52,73.67l-14.2,5.44c-2.03-6.45-5.73-9.68-11.12-9.68c-2.52,0-4.52,0.72-5.99,2.15
		c-1.46,1.42-2.21,3.11-2.21,5c0,2.23,0.88,3.99,2.62,5.3c1.74,1.33,5.38,3.05,10.91,5.2c5.04,1.86,9,3.71,11.89,5.55
		c2.88,1.84,5.2,4.32,6.98,7.47c1.78,3.15,2.66,6.8,2.66,10.97c0,7.3-2.5,13.28-7.53,17.97c-5.02,4.67-11.75,7.02-20.2,7.02
		c-14.16,0-23.21-7.18-27.14-21.49l15-4.3c1.84,7.86,6.02,11.81,12.56,11.81c2.97,0,5.4-0.78,7.23-2.33c1.86-1.55,2.8-3.58,2.8-6.1
		c0-1.92-0.66-3.62-1.96-5.12c-1.29-1.5-4.28-3.11-8.93-4.79c-6-2.13-10.46-4.07-13.42-5.81c-2.93-1.74-5.35-4.22-7.27-7.45
		c-1.9-3.23-2.86-6.91-2.86-11.03c0-7.02,2.27-12.79,6.78-17.27c4.52-4.5,10.52-6.75,17.95-6.75
		C469.69,55.44,478.16,61.53,481.52,73.67z M403.69,136.07h17.19V55.91h-17.19V136.07z M356.51,107.14L364,75.87l7.63,31.26H356.51z
		 M353.07,120.87h22.07l4.24,15.2h18.01l-22.88-80.11h-17.73l-24.06,80.11h16.19L353.07,120.87z M312.39,68.92
		c2.59,0,4.59,0.27,6.03,0.8c7.08,2.57,6.58,15.66,3.42,20.7c-1.39,2.23-4.62,3.61-9.45,3.61h-8.23V68.92H312.39z M286.55,136.07
		h17.61v-28.25h6.21c7.75,0,13.23-0.98,16.96-2.68c3.75-1.71,6.93-4.74,9.04-8.56c6.37-11.56,4.35-34.38-10.48-38.86
		c-3.85-1.16-9.27-1.76-16.29-1.76h-23.06V136.07z M510.44,107.14l7.49-31.26l7.63,31.26H510.44z M506.99,120.87h22.07l4.24,15.2
		h18.01l-22.88-80.11h-17.73l-24.06,80.11h16.19L506.99,120.87z"/>
	<path class="st0" d="M244.65,108.64l-7.63-31.26l-7.49,31.26H244.65z M221.94,137.58h-16.19l24.06-80.11h17.73l22.88,80.11H252.4
		l-4.24-15.2h-22.07L221.94,137.58z"/>
</g>
</svg>
